grf
version=1
nRows=23
nColumns=28
inDegrees=no
endheader
time	ground_force_1_vx	ground_force_1_vy	ground_force_1_vz	ground_force_1_px	ground_force_1_py	ground_force_1_pz	ground_moment_1_mx	ground_moment_1_my	ground_moment_1_mz	ground_force_2_vx	ground_force_2_vy	ground_force_2_vz	ground_force_2_px	ground_force_2_py	ground_force_2_pz	ground_moment_2_mx	ground_moment_2_my	ground_moment_2_mz	ground_force_3_vx	ground_force_3_vy	ground_force_3_vz	ground_force_3_px	ground_force_3_py	ground_force_3_pz	ground_moment_3_mx	ground_moment_3_my	ground_moment_3_mz
      0.30000000	      0.28339930	      0.16534696	      1.74325532	    303.63668699	  -1225.37270328	      1.96908939	      0.06695150	      0.24209747	    132.65637897	      0.70147732	      0.03888967	      1.83609959	     56.39567566	  -1430.29239305	      0.38817735	     -0.02355625	     -0.30465150	    365.05579674	      1.42579547	    -35.91676545	    -37.00540002	    489.32276170	   -438.11748763	      0.70846526	     -0.10397697	      0.76380722	    371.92839877
      0.31000000	      0.68672092	      0.48818797	      1.58508130	    264.44274646	  -1177.44961658	      1.90141103	      0.14710083	      0.53191849	    291.46269192	      0.50612436	      0.11618044	      2.01084406	    123.96213619	  -1487.42067617	      0.34486176	     -0.01648801	     -0.21323839	    255.51789006	     -0.05539737	    -11.45833288	     -5.16248227	    555.62203290	   -488.69957402	      0.83087743	     -0.25067049	      1.84140712	    896.65505170
      0.32000000	      0.48473320	      0.36633249	      1.18968435	    249.78221098	  -1097.96877589	      1.76375790	      0.12252670	      0.44305811	    242.77198953	      0.38820637	      0.27112236	      1.92070672	     85.81084160	  -1562.18569777	      0.28000599	     -0.01537018	     -0.19878164	    238.19475118	      1.62206119	     -0.85310136	      4.55432095	    455.85202375	   -318.04427796	      0.45252092	     -0.09470868	      0.69572306	    338.77548973
      0.33000000	      0.64671354	      0.24618879	      1.34774289	    239.75479304	  -1199.66431274	      1.95441276	      0.10395498	      0.37590254	    205.97435144	      0.62311359	      0.03837071	      2.36265997	    107.89821427	  -1534.79910034	      0.30428629	     -0.01001684	     -0.12954721	    155.23297720	      1.58251325	     -0.85242481	      4.94599981	    472.50528918	   -311.58292321	      0.44390724	     -0.08072518	      0.59300129	    288.75613485
      0.34000000	      0.36457554	     -0.03623790	      1.58640675	    274.15488994	  -1141.60674709	      1.83109621	      0.07136145	      0.25804391	    141.39416985	      0.27220666	      0.07609390	      1.83434837	     78.17152512	  -1561.42441616	      0.28014835	     -0.00966334	     -0.12497542	    149.75472194	      1.42212579	     -0.37772283	      5.02177257	    468.36356124	   -302.18721255	      0.42345396	     -0.07491318	      0.55030673	    267.96643945
      0.35000000	      0.48493224	      0.36722388	      1.58478782	    270.62298386	  -1233.68632773	      2.00092370	      0.10841871	      0.39204347	    214.81871042	      0.62404121	     -0.11657757	      1.48568576	    -36.78343122	  -1468.99130778	      0.34986914	     -0.00997913	     -0.12905948	    154.64854958	      1.54042518	     -0.29996057	      4.00262571	    409.62283508	   -314.47373808	      0.43226440	     -0.08057492	      0.59189747	    288.21864083
      0.36000000	      0.56631168	      0.36925120	      2.69316441	    330.03754536	  -1209.04780349	      1.92597202	      0.09670013	      0.34966891	    191.59973224	      0.38902950	      0.03731604	      2.01066301	     79.66627450	  -1534.87801944	      0.30239868	     -0.00632061	     -0.08174409	     97.95176642	      1.54191262	     -0.61506288	      4.86656512	    456.37982987	   -317.67032640	      0.45190051	     -0.09149663	      0.67212755	    327.28588820
      0.37000000	      0.56611192	      0.36861471	      2.29773478	    312.99235083	  -1189.54806332	      1.89898774	      0.09236062	      0.33397721	    183.00152739	      0.42740589	      0.19329393	      2.53636728	    169.68359303	  -1535.36935233	      0.30779727	     -0.00910018	     -0.11769203	    141.02723367	      1.70016370	     -0.69290250	      5.10123679	    438.38456659	   -328.40491312	      0.46891471	     -0.07323820	      0.53800244	    261.97498522
      0.38000000	      0.52605050	      0.20714190	      2.29652969	    330.45114246	  -1255.08106508	      2.00977383	      0.07538304	      0.27258605	    149.36247556	      0.42786631	      0.11525993	      2.18481834	    123.47940772	  -1579.16565204	      0.26826631	     -0.01081462	     -0.13986476	    167.59622550	      1.54229766	     -0.65575380	      4.31618828	    450.63241103	   -255.88747755	      0.32341399	     -0.10550478	      0.77503038	    377.39340716
      0.39000000	      0.48507635	      0.44898178	      2.21573489	    331.34513489	  -1340.73463846	      2.16564014	      0.03526739	      0.12752732	     69.87810624	      0.58397530	      0.07831192	      1.05053322	   -226.31975244	  -1310.32682853	      0.47004969	     -0.01924085	     -0.24884068	    298.17917809	      1.54223006	     -0.65508733	      4.63064769	    403.14730047	   -281.25723441	      0.36223933	     -0.08570799	      0.62960466	    306.57978401
      0.40000000	      0.68676037	      0.48867396	      1.66471342	    245.04234096	  -1188.34369499	      1.93108405	      0.12043169	      0.43548254	    238.62098445	      0.38957155	     -0.03980878	      1.57112201	      3.34264869	  -1595.51988990	      0.24686598	     -0.00285343	     -0.03690327	     44.22020259	      1.46470950	     -0.89396663	      4.23788003	    471.26249798	   -307.62342061	      0.43542841	     -0.09299900	      0.68316384	    332.65989963
      0.41000000	      0.48451165	      0.48725781	      1.26828004	    225.21941008	  -1221.23454786	      2.00111436	      0.13444633	      0.48615968	    266.38932690	      0.50500767	      0.31075113	      1.83741087	      9.19372767	  -1486.67380364	      0.33807930	     -0.02103714	     -0.27207198	    326.01661840	      1.58149610	     -0.61509186	      4.70983510	    432.65429628	   -278.46427580	      0.36475263	     -0.10217303	      0.75055559	    365.47565103
      0.42000000	      0.60633969	      0.48968437	      2.45417923	    344.46902048	  -1244.27599183	      1.98297981	      0.10933613	      0.39536088	    216.63647162	      0.42807654	      0.07708985	      1.66133778	    110.04712257	  -1419.31972006	      0.40079643	     -0.01226929	     -0.15867794	    190.13955813	      1.69989057	     -0.61426258	      4.78645697	    425.96383726	   -275.46586553	      0.35672457	     -0.09642329	      0.70831847	    344.90869822
      0.43000000	      0.60635458	      0.40850145	      2.13828780	    319.51451551	  -1233.83778534	      1.97652462	      0.07241338	      0.26184770	    143.47844079	      0.46626663	      0.27125238	      2.35939744	    199.77766710	  -1596.88014772	      0.25840632	     -0.01406610	     -0.18191600	    217.98510501	      1.38437578	     -0.65588750	      4.63043730	    476.26616827	   -304.43186822	      0.43027294	     -0.07515958	      0.55211678	    268.84782495
      0.44000000	      0.48497246	      0.36719769	      1.66376632	    262.28543297	  -1279.80699532	      2.08930172	      0.06764028	      0.24458812	    134.02112177	      0.54405931	      0.27189918	      2.01027367	    123.54409231	  -1536.90941082	      0.30353475	     -0.01442462	     -0.18655269	    223.54112948	      1.46413251	     -0.81345405	      4.86512740	    468.51069556	   -292.76957485	      0.40415465	     -0.10570148	      0.77647535	    378.09702217
      0.45000000	      0.56505453	      0.68965251	      1.58391214	    280.16174732	  -1243.45798322	      2.01394274	      0.11603635	      0.41958893	    229.91214244	      0.89108976	      1.09450770	     -0.60774604	    918.27850084	  -2039.01015670	     -0.06420296	      0.05926048	      0.76641208	   -918.37122527	      1.30532747	     -0.65534216	      5.10068185	    453.02342365	   -274.78008160	      0.36288105	     -0.08621328	      0.63331645	    308.38720658
      0.46000000	      1.08941435	      0.83989157	      0.31462082	    177.40377780	  -1448.24674110	      2.43954338	      0.07653503	      0.27675166	    151.64500962	     67.12148133	     99.56781208	   -375.32635090	    339.67534814	  -1585.32795687	      0.27707430	      0.00089325	      0.01155228	    -13.84279469	      1.26896741	     -1.36616553	      6.44327086	    431.55582448	   -386.62370130	      0.58656611	     -0.04899980	      0.35994893	    175.27358671
      0.47000000	     10.28025452	      6.95189503	    -18.22044031	    321.47350270	  -1466.49033684	      2.40012609	      0.21233497	      0.76780600	    420.71634603	    240.86775483	    408.64390088	  -1489.16417967	    343.76680548	  -1610.48437067	      0.25634443	      0.26995957	      3.49137037	  -4183.61631084	      2.72606625	     -0.85333964	      2.44755183	    469.27860342	    -81.88814925	     -0.02870531	     -0.34381129	      2.52561265	   1229.82219422
      0.48000000	     -7.06985476	     -4.11158768	    -13.74629817	    349.21669499	  -1488.64439674	      2.42655523	      0.03660058	      0.13234817	     72.51966868	     28.24464269	     47.82011878	  -1848.81543162	    360.77254590	  -1603.32206490	      0.26341896	      0.27945557	      3.61418154	  -4330.77768164	      1.31139870	     -2.04437753	      4.64998815	    464.65686575	   -337.14441257	      0.49420723	     -0.15462379	      1.13585507	    553.09343394
      0.49000000	      0.60738644	      0.00293631	      2.44250309	    599.23625664	  -1518.40463249	      2.35468303	     -0.01003991	     -0.03630444	    -19.89288002	     36.53763032	    275.32857077	  -2238.61702927	    367.21253090	  -1624.09140855	      0.24650179	     -1.03203424	    -13.34723481	  15993.63671342	      1.46206467	     -0.73631804	      4.72397634	    421.87955945	   -289.61558368	      0.38464120	     -0.13012476	      0.95588696	    465.45973524
      0.50000000	      0.52669918	     -0.31870282	      1.33601387	    665.73231997	  -1814.57948846	      2.86164073	     -0.02475845	     -0.08952687	    -49.05590261	    -47.58024129	    372.85634863	  -2434.03523085	    371.94730257	  -1640.36264111	      0.23322842	     -0.78120555	    -10.10328289	  12106.49534755	      1.42028100	     -0.26136456	      4.56466879	    409.28539213	   -265.48437882	      0.33156353	     -0.15210872	      1.11737952	    544.09694491
      0.51000000	      0.89124928	     -0.64197932	      1.65195050	    649.43239036	  -1708.10521031	      2.67555206	     -0.04318695	     -0.15616455	    -85.56976544	     20.20340866	    274.60593773	  -2503.15126563	    370.67893288	  -1648.60697167	      0.22626640	     -0.78595486	    -10.16470543	  12180.09634039	      1.89308297	     -0.17853080	      5.19446531	    494.24843371	   -309.07400194	      0.44483337	     -0.15121839	      1.11083925	    540.91222582
      0.52000000	      0.89091098	     -0.52319280	      1.49191211	    709.31326982	  -1851.79198014	      2.90755816	     -0.13731285	     -0.49652505	   -272.06899348	     55.69485268	    235.72999466	  -2613.46637152	    370.09994494	  -1655.37501573	      0.22058088	     -0.46173107	     -5.97153925	   7155.53676143	      1.77616845	     -0.49577806	      5.35162575	    463.15903240	   -269.21121818	      0.35427813	     -0.12351797	      0.90735397	    441.82707511
